DBRep_DrawableShape

CASCADE Topology V1, (c) Matra-Datavision
Locations 0
Curve2ds 29
1 0 0 1 0 
1 0 0 1 0 
2 0 -63.5 1 0 0 1 138.540643855874
7 0 0  10 29 4  2.35619449019234 0.940659080730331  2.37927608704982 0.957493065319557  2.40385640701082 0.973895317473003  2.43004038233665 0.989821863541228  2.45793525653042 1.00522344382688  2.48764888375197 1.02004511897613  2.5192846148259 1.03422577323605  2.55293292319721 1.04769790854437  2.58865992321944 1.06038812271117  2.62649293315997 1.07221866495184  2.72626868852918 1.09944815764903  2.79080822058677 1.11367366668856  2.85992624444771 1.12552029651852  2.93325041339267 1.13471377515816  3.01001504861051 1.14099936961429  3.08899611217203 1.14416895466275  3.1684435964271 1.14413828021497  3.246751609895 1.14096185220478  3.32261434300943 1.1347898674164  3.4676004391685 1.11687703072395  3.53672364183849 1.105136173629  3.60155291346218 1.09082179579223  3.66153579197417 1.07420518561921  3.71657012509968 1.05557885180679  3.76683898426418 1.03521442670753  3.8126539369383 1.01334930332878  3.85437371304063 0.99018965549437  3.89236842218579 0.965910057260617  3.92699081698724 0.940659080730332 
 5.80704833942072 11 6.04511682330016 9 6.4022195491193 9 6.75932227493845 11
1 0 0 0 -1 
1 0 0 0 1 
1 0 -127 1 0 
1 0 0 1 0 
1 0 0 1 0 
1 0 127 1 0 
2 0 63.5 1 0 0 1 138.540643855874
7 0 0  10 29 4  3.92699081698724 0.940659080730331  3.95007241384472 0.957493065319557  3.97465273380611 0.973895317473003  4.0008367091321 0.989821863541228  4.02873158332591 1.00522344382688  4.05844521054743 1.02004511897613  4.0900809416212 1.03422577323605  4.1237292499922 1.04769790854437  4.1594562500142 1.06038812271117  4.19728925995487 1.07221866495184  4.29706501532407 1.09944815764903  4.36160454712808 1.11367366668856  4.43072257301537 1.12552029651852  4.50404673529556 1.13471377515816  4.58081138203852 1.14099936961429  4.65979243500624 1.14416895466275  4.73923992487835 1.14413828021497  4.81754793659638 1.14096185220478  4.89341066980433 1.1347898674164  5.03839676596339 1.11687703072395  5.10751996860369 1.105136173629  5.1723492403562 1.09082179579223  5.23233211866464 1.07420518561921  5.28736645191384 1.05557885180679  5.33763531121076 1.03521442670753  5.38345026367315 1.01334930332878  5.42517003985676 0.99018965549437  5.46316474898069 0.965910057260617  5.49778714378214 0.940659080730332 
 5.80704833942072 11 6.04511682330016 9 6.40221954911931 9 6.75932227493845 11
1 0 0 0 1 
1 0 0 1 0 
1 6.28318530717959 -6.28318530717959 0 1 
1 0 -6.28318530717959 0 1 
2 0 -63.5 1 0 0 1 138.540643855874
7 0 0  11 12 2  6.28318530717959 1.14102089549037  6.1887481943324 1.14102089539593  6.09431089223224 1.13652439102225  6.0023783009922 1.12753141866415  5.91543901098637 1.11425824795151  5.83543141379348 1.09713703289162  5.76286898059632 1.07673246681225  5.69754712016881 1.05353296024259  5.63901187887975 1.02798616504879  5.58662521091835 1.00046062882393  5.53975368264161 0.97126632479519  5.49778714378214 0.940659080730331 
 1.90462648159306e-016 12 0.476136967758863 12
1 0 1.5707963267949 1 0 
2 0 -63.5 1 0 0 1 138.540643855874
7 0 0  11 12 2  0.785398163397448 0.940659080730332  0.743431624537974 0.97126632479519  0.696560096366738 1.00046062921683  0.64417342809611 1.02798616455402  0.58563818980474 1.05353296099929  0.520316324313171 1.07673246064223  0.44775389705319 1.09713702788576  0.36774629788124 1.11425824346952  0.280807006267423 1.12753141930443  0.188874414865495 1.1365243912187  0.0944371128471903 1.14102089539593  5.43519523071901e-016 1.14102089549037 
 5.80704833942072 12 6.28318530717959 12
2 0 63.5 1 0 0 1 138.540643855874
7 0 0  11 22 3  2.35619449019235 0.940659080730332  2.31422795124473 0.971266324859472  2.26735642323183 1.00046062939509  2.21496975159971 1.02798616368091  2.15643451723736 1.05353296367684  2.09111264068633 1.0767324573826  2.01855022530071 1.09713703673333  1.93854261690285 1.11425824463367  1.85160333506064 1.1275314190716  1.75967073963693 1.13652439134967  1.66523343765868 1.14102089549037  1.47635921593111 1.14102089549037  1.38192191322014 1.13652439145881  1.28998932737159 1.12753141787834  1.20305001735687 1.11425824719481  1.12304244749248 1.09713703440502  1.05047998623922 1.07673246506602  0.985158145544119 1.05353295814712  0.926622897299239 1.02798616525251  0.874236231222312 1.0004606290313  0.827364702345063 0.971266324859472  0.785398163397449 0.940659080730332 
 5.80704833942072 12 6.28318530717959 10 6.75932227493845 12
1 0 0 0 1 
1 0 127 1 0 
1 0 0 0 -1 
1 127 0 0 1 
1 0 -127 1 0 
1 0 127 1 0 
Curves 14
1 -63.5 -63.5 0 0 0 1 
8 5.80704833942072 6.75932227493845
2 -63.5 0 0 1 0 0 0 0 1 0 -1 0 138.540643855874
1 -63.5 -63.5 0 0 1 0 
1 -63.5 63.5 0 0 0 1 
1 63.5 -63.5 0 0 0 1 
8 5.80704833942072 6.75932227493845
2 0 -63.5 0 0 1 0 0 0 1 1 0 0 138.540643855874
1 -63.5 -63.5 0 1 0 0 
2 0 0 0 -2.44921270764475e-016 -1 0 1 -2.44921270764475e-016 0 0 0 1 152.4
8 1.90462648159306e-016 0.476136967758863
2 63.5 0 0 1 0 0 0 0 1 0 -1 0 138.540643855874
8 5.80704833942072 6.28318530717959
2 63.5 0 0 1 0 0 0 0 1 0 -1 0 138.540643855874
8 5.80704833942072 6.75932227493845
2 0 63.5 0 0 1 0 0 0 1 1 0 0 138.540643855874
1 -63.5 63.5 0 1 0 0 
1 63.5 -63.5 0 0 1 0 
1 63.5 63.5 0 0 0 1 
Polygon3D 0
PolygonOnTriangulations 26
2 1 2 
p 14.9955312533084 1 0 123.131068378375 
2 9 3 
p 15.3244365260337 1 0 123.131068378375 
7 3 4 5 6 7 8 2 
p 14.9955312533084 1 5.80704833942072 5.96576066200701 6.1244729845933 6.28318530717959 6.44189762976588 6.60060995235216 6.75932227493845 
7 12 13 14 15 16 17 5 
p 19.4523096254621 1 5.80704833942072 5.96576066200701 6.1244729845933 6.28318530717959 6.44189762976588 6.60060995235216 6.75932227493845 
2 1 2 
p 12.70000002 1 0 127 
2 1 9 
p 15.240000004 1 0 127 
2 9 3 
p 14.9955312533084 1 0 123.131068378375 
2 9 3 
p 15.3244365260337 1 0 123.131068378375 
2 1 2 
p 14.9955312533084 1 0 123.131068378375 
2 1 2 
p 15.34088178967 1 0 123.131068378375 
7 3 4 5 6 7 8 2 
p 14.9955312533084 1 5.80704833942072 5.96576066200701 6.1244729845933 6.28318530717959 6.44189762976588 6.60060995235216 6.75932227493845 
7 5 6 7 8 9 10 3 
p 19.4523096254621 1 5.80704833942072 5.96576066200701 6.1244729845933 6.28318530717959 6.44189762976588 6.60060995235216 6.75932227493845 
2 1 4 
p 12.70000002 1 0 127 
2 9 1 
p 15.240000004 1 0 127 
2 1 2 
p 19.4523096254621 1 7.42420620266996 7.85398163397448 
2 11 4 
p 19.4523096254621 1 7.42420620266996 7.85398163397448 
2 3 2 
p 14.9955312533084 1 1.90462648159306e-016 0.476136967758863 
2 4 2 
p 1e-005 1 0 6.28318530717959 
2 5 3 
p 14.9955312533084 1 5.80704833942072 6.28318530717959 
7 3 4 5 6 7 8 2 
p 14.9955312533084 1 5.80704833942072 5.96576066200701 6.1244729845933 6.28318530717959 6.44189762976588 6.60060995235216 6.75932227493845 
2 2 3 
p 12.70000002 1 0 127 
2 9 1 
p 15.240000004 1 0 127 
2 4 3 
p 12.70000002 1 0 127 
2 1 4 
p 15.240000004 1 0 127 
2 1 2 
p 14.9955312533084 1 0 123.131068378375 
2 4 5 
p 15.34088178967 1 0 123.131068378375 
Surfaces 6
1 -63.5 -63.5 0 1 0 0 0 0 1 0 -1 0 
1 -63.5 -63.5 0 0 1 0 0 0 1 1 0 0 
4 0 0 0 0 0 1 1 0 0 0 1 0 152.4
1 -63.5 -63.5 0 0 0 1 1 0 0 0 1 0 
1 -63.5 63.5 0 0 1 0 0 0 1 1 0 0 
1 63.5 -63.5 0 1 0 0 0 0 1 0 -1 0 
Triangulations 6
10 9 1 15.0566484409813
-63.5 -63.5 0 -63.5 -63.5 123.131068378375 -63.5 63.5 123.131068378375 -63.5 43.2414307417988 131.619484375993 -63.5 21.8959116112102 136.799411748421 -63.5 -8.91172595784385e-014 138.540643855874 -63.5 -21.8959116112103 136.799411748421 -63.5 -43.2414307417989 131.619484375993 -63.5 63.5 0 -63.5 0 69.2703219279368 0 0 123.131068378375 0 123.131068378375 -127 131.619484375993 -106.741430741799 136.799411748421 -85.3959116112102 138.540643855874 -63.4999999999999 136.799411748421 -41.6040883887896 131.619484375993 -20.2585692582011 0 -127 69.2703219279368 -63.5 9 3 10 1 10 2 10 1 9 8 2 10 10 3 4 6 10 5 10 7 8 10 6 7 5 10 4 
10 9 1 15.1388747591626
63.5 -63.5 0 63.5 -63.5 123.131068378375 -63.5 -63.5 123.131068378375 -43.2414307417988 -63.5 131.619484375993 -21.8959116112102 -63.5 136.799411748421 8.91172595784385e-014 -63.5 138.540643855874 21.8959116112103 -63.5 136.799411748421 43.2414307417989 -63.5 131.619484375993 -63.5 -63.5 0 0 -63.5 69.2703219279368 0 127 123.131068378375 127 123.131068378375 -7.105427357601e-015 131.619484375993 20.2585692582012 136.799411748421 41.6040883887898 138.540643855874 63.5000000000001 136.799411748421 85.3959116112104 131.619484375993 106.741430741799 0 0 69.2703219279368 63.5 9 3 10 1 10 2 10 1 9 8 2 10 10 3 4 6 10 5 10 7 8 10 6 7 5 10 4 
22 20 1 17.0207709322793
63.5 -1.55525006935442e-014 138.540643855874 9.33150041612652e-015 -2.28548294005694e-030 152.4 63.5 -63.5 123.131068378375 9.33150041612652e-015 -2.28548294005694e-030 152.4 -63.5 -63.5 123.131068378375 -43.2414307417988 -63.5 131.619484375993 -21.8959116112102 -63.5 136.799411748421 8.91172595784385e-014 -63.5 138.540643855874 21.8959116112103 -63.5 136.799411748421 43.2414307417989 -63.5 131.619484375993 63.5 -1.55525006935442e-014 138.540643855874 -63.5 63.5 123.131068378375 -63.5 43.2414307417988 131.619484375993 -63.5 21.8959116112102 136.799411748421 -63.5 -8.91172595784385e-014 138.540643855874 -63.5 -21.8959116112103 136.799411748421 -63.5 -43.2414307417989 131.619484375993 63.5 63.5 123.131068378375 -39.0424226370026 63.5 132.925540189362 -13.1729340744881 63.5 137.912957360319 13.1729340744879 63.5 137.912957360319 39.0424226370024 63.5 132.925540189362 6.28318530717959 1.14102089549037 6.28318530717959 1.5707963267949 5.49778714378214 0.940659080730331 0 1.5707963267949 3.92699081698724 0.940659080730331 4.11455110108164 1.04245601781661 4.38033852291763 1.11437144619431 4.71238897936484 1.14102089560477 5.0444394401669 1.11437144652864 5.31022686648788 1.04245601702146 0 1.14102089549037 2.35619449019234 0.940659080730331 2.54375477428654 1.04245601781661 2.80954219612719 1.11437144619431 3.14159265240329 1.14102089560477 3.47364311337285 1.11437144652864 3.73943053967035 1.04245601702146 0.785398163397448 0.940659080730332 2.12205712716597 1.05971236621757 1.77534285697007 1.13124026543659 1.36624979672198 1.13124026546313 1.0195355236308 1.05971236666179 18 22 11 19 12 13 19 13 14 11 21 4 11 22 21 4 21 20 20 14 15 20 15 4 14 20 19 4 15 2 17 5 6 10 3 1 17 6 16 16 7 8 7 16 6 8 2 15 9 1 2 1 9 10 9 2 8 8 15 16 
4 2 1 12.70000002
-63.5 -63.5 0 -63.5 63.5 0 63.5 63.5 0 63.5 -63.5 0 0 0 0 127 127 127 127 0 2 1 4 4 3 2 
10 9 1 15.1388747591626
63.5 63.5 0 63.5 63.5 123.131068378375 -63.5 63.5 123.131068378375 -43.2414307417988 63.5 131.619484375993 -21.8959116112102 63.5 136.799411748421 8.91172595784385e-014 63.5 138.540643855874 21.8959116112103 63.5 136.799411748421 43.2414307417989 63.5 131.619484375993 -63.5 63.5 0 0 63.5 69.2703219279368 0 127 123.131068378375 127 123.131068378375 -7.105427357601e-015 131.619484375993 20.2585692582012 136.799411748421 41.6040883887898 138.540643855874 63.5000000000001 136.799411748421 85.3959116112104 131.619484375993 106.741430741799 0 0 69.2703219279368 63.5 9 3 10 1 10 2 10 1 9 8 2 10 10 3 4 6 10 5 10 7 8 10 6 7 5 10 4 
6 5 1 15.1825652179914
63.5 -63.5 0 63.5 -63.5 123.131068378375 63.5 -1.55525006935442e-014 138.540643855874 63.5 63.5 0 63.5 63.5 123.131068378375 63.5 0 69.2703219279368 0 0 123.131068378375 0 138.540643855874 -63.5 0 -127 123.131068378375 -127 69.2703219279368 -63.5 4 6 1 6 4 5 1 6 2 3 2 6 3 6 5 

TShapes 40
Ve
7.81695509061209e-007
-63.5 -63.5 123.131068378375
0 0

0101100
*
Ve
1e-007
-63.5 -63.5 0
0 0

0101100
*
Ed
 1e-007 1 1 0
1  1 0 0 123.131068378375
2  1 1 0 0 123.131068378375
2  2 2 0 0 123.131068378375
6  1 1 0
6  2 2 0
0

0101000
-40 0 +39 0 *
Ve
8.64339314811112e-007
-63.5 63.5 123.131068378375
0 0

0101100
*
Ed
 7.8168614598622e-007 1 1 0
1  2 0 5.80704833942072 6.75932227493845
2  3 1 0 5.80704833942072 6.75932227493845
2  4 3 0 5.80704833942072 6.75932227493845
6  3 1 0
6  4 3 0
0

0101000
+37 0 -40 0 *
Ve
1e-007
-63.5 63.5 0
0 0

0101100
*
Ed
 1e-007 1 1 0
1  3 0 0 127
2  5 1 0 0 127
2  6 4 0 0 127
6  5 4 0
6  6 1 0
0

0101000
-35 0 +39 0 *
Ed
 1e-007 1 1 0
1  4 0 0 123.131068378375
2  7 1 0 0 123.131068378375
2  8 5 0 0 123.131068378375
6  7 1 0
6  8 5 0
0

0101000
-37 0 +35 0 *
Wi

0101100
-38 0 +36 0 +34 0 +33 0 *
Fa
0  1e-007 1 0
2  1
0101000
+32 0 *
Ve
7.81695509061209e-007
63.5 -63.5 123.131068378375
0 0

0101100
*
Ve
1e-007
63.5 -63.5 0
0 0

0101100
*
Ed
 1e-007 1 1 0
1  5 0 0 123.131068378375
2  9 6 0 0 123.131068378375
2  10 2 0 0 123.131068378375
6  9 2 0
6  10 6 0
0

0101000
-30 0 +29 0 *
Ed
 7.81695509061209e-007 1 1 0
1  6 0 5.80704833942072 6.75932227493845
2  11 2 0 5.80704833942072 6.75932227493845
2  12 3 0 5.80704833942072 6.75932227493845
6  11 2 0
6  12 3 0
0

0101000
+40 0 -30 0 *
Ed
 1e-007 1 1 0
1  7 0 0 127
2  13 2 0 0 127
2  14 4 0 0 127
6  13 4 0
6  14 2 0
0

0101000
-29 0 +39 0 *
Wi

0101100
-28 0 +27 0 -26 0 +38 0 *
Fa
0  1e-007 2 0
2  2
0101000
+25 0 *
Ve
8.65343222353363e-007
63.5 -1.55525006935442e-014 138.540643855874
0 0

0101100
*
Ve
1e-007
9.33150041612652e-015 -2.28548294005694e-030 152.4
0 0

0101100
*
Ed
 1e-007 1 1 0
1  8 0 7.42420620266996 7.85398163397448
3  15 16CN 3 0 7.42420620266996 7.85398163397448
7  15 16 3 0
0

0101000
+23 0 -22 0 *
Ed
 7.02995810635958e-007 1 1 0
1  9 0 1.90462648159306e-016 0.476136967758863
2  17 6 0 1.90462648159306e-016 0.476136967758863
2  18 3 0 1.90462648159306e-016 0.476136967758863
6  17 6 0
0

0101000
+23 0 -30 0 *
Ed
 1e-007 1 1 1
2  19 3 0 0 6.28318530717959
6  18 3 0
0

0101100
+22 0 -22 0 *
Ve
8.65343222353363e-007
63.5 63.5 123.131068378375
0 0

0101100
*
Ed
 8.65343222353363e-007 1 1 0
1  10 0 5.80704833942072 6.28318530717959
2  20 6 0 5.80704833942072 6.28318530717959
2  21 3 0 5.80704833942072 6.28318530717959
6  19 6 0
0

0101000
+18 0 -23 0 *
Ed
 8.64339314811112e-007 1 1 0
1  11 0 5.80704833942072 6.75932227493845
2  22 5 0 5.80704833942072 6.75932227493845
2  23 3 0 5.80704833942072 6.75932227493845
6  20 5 0
0

0101000
+37 0 -18 0 *
Wi

0101100
+21 0 -20 0 -19 0 +27 0 -21 0 +36 0 -17 0 -16 0 *
Fa
0  1e-007 3 0
2  3
0101000
+15 0 *
Ve
1e-007
63.5 63.5 0
0 0

0101100
*
Ed
 1e-007 1 1 0
1  12 0 0 127
2  24 5 0 0 127
2  25 4 0 0 127
6  21 4 0
6  22 5 0
0

0101000
-13 0 +35 0 *
Ed
 1e-007 1 1 0
1  13 0 0 127
2  26 6 0 0 127
2  27 4 0 0 127
6  23 4 0
6  24 6 0
0

0101000
-13 0 +29 0 *
Wi

0101000
-34 0 -12 0 +11 0 +26 0 *
Fa
0  1e-007 4 0
2  4
0111000
+10 0 *
Ed
 1e-007 1 1 0
1  14 0 0 123.131068378375
2  28 6 0 0 123.131068378375
2  29 5 0 0 123.131068378375
6  25 5 0
6  26 6 0
0

0101000
-18 0 +13 0 *
Wi

0101100
-8 0 +16 0 -12 0 +33 0 *
Fa
0  1e-007 5 0
2  5
0101000
+7 0 *
Wi

0101100
-28 0 +20 0 +11 0 +17 0 +8 0 *
Fa
0  1e-007 6 0
2  6
0101000
+5 0 *
Sh

0101100
-31 0 -24 0 +14 0 -9 0 +6 0 +4 0 *
So

0100000
+3 0 *
Co

1100000
+2 0 *

+1 0 