DBRep_DrawableShape

CASCADE Topology V1, (c) Matra-Datavision
Locations 0
Curve2ds 4
7 0 0  10 20 3  0 1.00074957484625e-018  9.04246120174274 -1.31041143041947e-012  18.1243221130837 -6.22495851192093e-005  27.2255260638743 0.000186764614664592  36.3614572545664 -0.000192289900698859  45.4637780346273 -2.00253749021977e-005  54.6264922118567 0.000204189390358854  63.7369830561598 -0.000146596292452568  72.8521683169255 7.31384919137192e-006  81.9557675397653 2.51442024358976e-005  100.152065914455 -2.63463242812885e-005  109.243772276125 -0.000237051286846719  118.33910213356 0.00136062551146666  127.412085553868 -0.00250475830099025  136.538470794965 0.00241058749703995  145.621499171562 -0.00142250323944764  154.745012900868 0.000592132047223712  163.864806124803 -0.000164173719872238  172.998168733997 1.21010483923875e-011  182.138086402 3.05778893958802e-019 
 0 11 128.68816709 9 257.37633418 11
7 0 0  9 66 9  182.138086402 0  182.138086402001 2.09252423674639  182.13808643468 4.19325802173845  182.138086472237 6.30129853594287  182.138086495415 8.41584554826893  182.138086493187 10.5361765098892  182.138086463191 12.6616216485841  182.138086411271 14.79153906306  182.138086351855 16.9252898172906  182.13808626356 21.1991362523912  182.138086555209 23.3391626871817  182.138084845477 25.4821671127233  182.138088837645 27.6254183198408  182.138084818011 29.7727372133734  182.138086599831 31.9167717664037  182.138086404448 34.0618540438973  182.138086467135 36.2056128726514  182.138086452271 40.4905988410158  182.138086402344 42.6317874717877  182.138086352097 44.7712633284451  182.138086328089 46.9086750175558  182.138086341217 49.04372817296  182.138086386777 51.1761854557689  182.138086444396 53.3058665543669  182.138086478097 55.4326481844092  182.138086394389 59.680279993239  182.138086332333 61.8010627707325  182.138086255597 63.9191913605173  182.13808626928 66.0339791911816  182.138086402807 68.1453495659845  182.138086565546 70.2539850578333  182.138086606949 72.3607664120621  182.138086459268 74.4663164544253  182.138086213578 78.6766125504042  182.138087928848 80.7814330763557  182.138078540888 82.8859631813841  182.138099984961 84.9933689088013  182.138080656956 87.0986521810245  182.138082880423 89.2095886698098  182.138086887431 91.3187555731988  182.138086560402 93.4279408316262  182.138086938676 97.6465679353696  182.13808655571 99.7559738144014  182.138086090608 101.865632924902  182.138085833904 103.975892403525  182.138085899531 106.087213564236  182.138086244981 108.200099842587  182.138086694825 110.315024740828  182.138086960915 112.432359772232  182.138086369404 116.672245039761  182.138087619499 118.794902678135  182.138077998306 120.919507536854  182.138089399586 123.049968080562  182.138094955188 125.177038689343  182.138082751146 127.311648931433  182.138088082175 129.446961612807  182.138086208275 131.586092205145  182.138085712642 135.870595704245  182.138085774907 138.016061056895  182.138086167485 140.164814747001  182.138086706151 142.316877362859  182.13808712587 144.47223614274  182.138087204216 146.630865770876  182.138086885051 148.792749173482  182.138086401992 150.957898314784  182.138086402 153.126374993 
 0 10 27.063537942875 8 54.12707588575 8 81.190613828625 8 108.2541517715 8 135.317689714375 8 162.38122765725 8 189.444765600125 8 216.508303543 10
7 0 0  10 65 8  3.5527136788005e-015 153.126374993  4.44658013925012 153.126374992994  8.92076212098964 153.126378251675  13.4191938641517 153.126373282721  17.9351199081315 153.12637100242  22.4743431175333 153.126375191  27.0165816273118 153.12637933533  31.5835224635159 153.126376782356  36.1471886109938 153.12637115458  40.7198958683646 153.126373932099  47.5819275288905 153.126377291146  49.8698738002866 153.126375335162  52.1580160620414 153.126373568961  54.445901312568 153.126373249003  56.7330718666081 153.126374241201  59.0191072778722 153.126375635484  61.3036662631653 153.126376365716  63.5865286248876 153.126375823714  65.8676371749571 153.126374478486  70.4266421405353 153.126374505093  72.7043788743679 153.12637486325  74.9811535440287 153.126375735015  77.2567285236316 153.126376213972  79.5309012062208 153.126375768754  81.8038806120704 153.126374683232  84.076221493165 153.126373801777  86.3485731462749 153.126373885578  88.6215001523526 153.126374895949  93.1697643586559 153.126376127774  95.4451547881956 153.126372809488  97.7222607142847 153.12637146446  100.00176614811 153.126373389116  102.284278822537 153.126377166654  104.570140506821 153.126380323039  106.859350759521 153.126380750667  109.151604115104 153.126377888822  111.446440708155 153.126373671017  116.040579956807 153.126372792209  118.339942100988 153.126374352049  120.64136484701 153.126376152584  122.944702899932 153.126377268423  125.249846331129 153.126377417701  127.556669320873 153.126376771383  129.864978901903 153.126375764247  132.174463701808 153.126374903783  134.484642686563 153.126374581152  139.10498511977 153.126375179906  141.415298508925 153.126375371128  143.723955167233 153.126375170271  146.033678196574 153.126374883408  148.337264806164 153.126374747024  150.636236023176 153.126374787863  152.93334909444 153.126374912111  155.223173655518 153.126375025009  157.50758195325 153.126375081359  162.062149688947 153.126375085303  164.332428337416 153.12637493936  166.594830561093 153.126374837663  168.848466541904 153.12637484484  171.092444001143 153.126374940187  173.325884348558 153.126375055019  175.547938835001 153.126375116342  177.757804701696 153.126375083937  179.954741332065 153.126374993005  182.138086402 153.126374993 
 0 11 64.66054385375 9 96.990815780625 9 129.3210877075 9 161.651359634375 9 193.98163156125 9 226.311903488125 9 258.642175415 11
7 0 0  7 14 3  -2.50416005753358e-026 0  1.96028782765068e-011 10.8917966919843  -3.1790610499924e-011 21.8168577780754  1.72851105166439e-011 32.7611525489904  -1.4275204611001e-012 43.7143860343652  1.09871429471089e-012 54.6648029544869  -1.07203551335865e-012 65.6128406902525  -3.7361839918998e-013 87.5092030115896  7.94298591429924e-013 98.4570132187834  5.64497917643437e-012 109.408716863269  -5.34429930632711e-012 120.364109286366  -5.07348400062256e-012 131.309696536929  6.83200405971836e-012 142.234577323758  -6.40176401804956e-026 153.126374993 
 0 8 107.82660633 6 215.65321266 8
Curves 12
7 0 0  5 12 4  -90 -75 50  -78.3775314299 -75 46.2622814534  -66.58058255 -75 43.3226496543  -54.6531531288 -75 41.2188582839  -30.569650048 -75 38.6819362448  -6.28784785969 -75 38.8896679987  5.85467598864 -75 39.5264543477  30.0727256265 -75 41.4382301153  54.1544033095 -75 44.4094448827  66.1453988779 -75 46.0801959424  78.0972194366 -75 47.9449337182  90 -75 50 
 0 6 85.7921113934 3 171.584222787 3 257.37633418 6
7 0 0  5 18 6  90 -75 50  90 -69.6049091789 53.0947739961  90 -64.0381935092 55.7437609835  90 -58.3233102495 57.908577173  90 -46.6153635121 61.2331743905  90 -34.5258950243 62.6951001214  90 -28.4146575932 62.9996286459  90 -16.1313875845 62.9292593205  90 -3.81374307551 61.8174408821  90 2.31967520214 61.0853876112  90 14.6421357766 59.3958759109  90 26.8729890213 57.4590551188  90 32.9480060828 56.4773520535  90 45.0806230451 54.520576119  90 57.1033472666 52.6391846358  90 63.0950906197 51.7278176231  90 69.0603247316 50.8480555895  90 75 50 
 0 6 43.3016607085 3 86.603321417 3 129.904982126 3 173.206642834 3 216.508303543 6
7 0 0  5 18 6  -90 75 50  -82.7740600229 75 47.9495959775  -75.4940767046 75 46.3642954129  -68.1872263375 75 45.2715673358  -53.549907836 75 44.1057679416  -38.9518774458 75 44.8696663888  -31.6689606219 75 45.7107339717  -17.224261488 75 48.1568071862  -2.91602932385 75 51.6221229242  4.19819923928 75 53.4819772903  18.5074425972 75 57.0798678821  32.915343402 75 59.6012265811  40.130566539 75 60.3862270727  54.6338961783 75 60.6388285555  69.0040439405 75 58.0872190022  76.1291243192 75 56.059329922  83.1382883343 75 53.3369296787  90 75 50 
 0 6 51.7284350831 3 103.456870166 3 155.185305249 3 206.913740332 3 258.642175415 6
7 0 0  5 9 3  -90 -75 50  -90 -60.2991564861 54.0538711881  -90 -45.4002181761 57.1173257178  -90 -30.3456667081 59.1576451218  -90 -0.00191904900157 61.196634811  -90 30.340930295 59.1582110538  -90 45.4006515646 57.1174897304  -90 60.2991551665 54.0538715518  -90 75 50 
 0 6 107.82660633 3 215.65321266 6
1 -90 1.42108547152e-014 0 0 -1 0 
1 0 -75 0 1 0 0 
1 90 0 0 0 1 0 
1 0 75 0 -1 0 0 
1 -90 -75 25 0 0 1 
1 90 -75 25 0 0 1 
1 90 75 25 0 0 1 
1 -90 75 25 0 0 1 
Polygon3D 0
PolygonOnTriangulations 21
6 1 3 4 5 6 2 
p 18.0000549657233 1 0 38.606450127 77.212900254 127.000904659644 192.188619419822 257.37633418 
6 2 5 6 7 8 4 
p 21.6000035485344 1 0 38.606450127 77.212900254 127.000904659644 192.188619419822 257.37633418 
8 2 8 9 10 11 12 13 7 
p 18.00000002 1 0 18.0423586285833 36.0847172571667 54.12707588575 77.9973210085716 114.082038265738 165.295170904369 216.508303543 
8 2 5 6 7 8 9 10 4 
p 18.6000035485344 1 0 18.0423586285833 36.0847172571667 54.12707588575 77.9973210085716 114.082038265738 165.295170904369 216.508303543 
13 14 15 16 17 18 19 20 21 22 23 24 25 7 
p 18.0000159649651 1 0 21.5535146179167 43.1070292358333 64.66054385375 92.1251316003298 135.232160836163 174.513441227316 192.699219186183 206.338552655334 222.910342820352 238.254592973146 248.448384194073 258.642175415 
13 4 5 6 7 8 9 10 11 12 13 14 15 2 
p 21.6000035485344 1 0 21.5535146179167 43.1070292358333 64.66054385375 92.1251316003298 135.232160836163 174.513441227316 192.699219186183 206.338552655334 222.910342820352 238.254592973146 248.448384194073 258.642175415 
5 1 26 27 28 14 
p 18.00000002 1 0 58.2263674182 116.4527348364 166.0529737482 215.65321266 
5 4 5 6 7 2 
p 18.6000035485344 1 0 58.2263674182 116.4527348364 166.0529737482 215.65321266 
2 1 2 
p 18.00000002 1 -75 75 
2 1 3 
p 18.600000004 1 -75 75 
2 2 3 
p 18.00000002 1 -90 90 
2 1 3 
p 21.600000004 1 -90 90 
2 3 4 
p 18.00000002 1 -75 75 
2 1 3 
p 18.600000004 1 -75 75 
2 4 1 
p 18.00000002 1 -90 90 
2 1 3 
p 21.600000004 1 -90 90 
2 3 4 
p 15.00000002 1 -25 25 
2 1 2 
p 15.00000002 1 -25 25 
2 3 4 
p 15.00000002 1 -25 25 
2 1 2 
p 18.00000002 1 -25 25 
2 1 2 
p 15.00000002 1 -25 25 
Surfaces 6
9 0 0 0 0 5 5 18 18 6 6 -90 -75 50  -90 -69.7934323444 51.4357512607  -90 -64.5704319953 52.7449105868  -90 -59.3309989527 53.9274779783  -90 -46.395493479 56.5263983065  -90 -33.3648944943 58.3585147223  -90 -25.5975706525 59.1759473308  -90 -13.8127511529 60.0033911068  -90 -2.00110171119 60.2127548427  -90 2.00110171124 60.2127548427  -90 6.1021326333 60.1400632886  -90 10.1999292224 59.9928625673  -90 10.2998909174 59.9892273414  -90 23.4451938613 59.5053423404  -90 36.5557110655 58.2546534269  -90 49.4685035596 56.2582886529  -90 62.2832665377 53.5067375106  -90 75 50  
-80.1407463435 -75 46.8293211528  -80.1309866313 -69.8103338672 48.3299923187  -80.1017074946 -64.5704319953 49.5907138002  -80.0821880702 -59.3309989527 50.7815222221  -80.0348991889 -46.395493479 53.4004077448  -79.9909043397 -33.3648944943 55.2510986267  -79.9666901562 -25.5975706525 56.0787543758  -79.9336173788 -13.8127511529 56.9201613588  -79.9005446013 -2.00110171119 57.1434883016  -79.8525042529 2.00110171124 57.1637707628  -79.8410213111 6.1021326333 57.0959272651  -79.8295383694 10.1999292224 56.9535746003  -79.8292582439 10.2998909174 56.9500576423  -79.7924187833 23.4451938613 56.4817261282  -79.7553276286 36.5557110655 55.246696966  -79.7076525894 49.4685035596 53.270460421  -79.6361400304 62.2882472658 50.4992982413  -79.6123025108 75 47.0524282261  
-70.2094710219 -75 44.2504887457  -70.2094710219 -69.8610384358 45.9294375665  -70.171989558 -64.6431334442 47.3596332298  -70.1468530146 -59.4294958141 48.6923202254  -70.0763781425 -46.5419282375 51.4697202348  -69.9934427437 -33.5251340555 53.3750166474  -69.9428540844 -25.7561045558 54.2123701101  -69.8678899048 -13.9579389361 55.0320104715  -69.7898718708 -2.12239548612 55.1943376796  -69.6999873009 1.88877485071 55.201478564  -69.6728788977 5.99956588577 55.1063264593  -69.6461349945 10.1073932996 54.9370373558  -69.6454828029 10.2075998479 54.9328635618  -69.559742998 23.3851224333 54.3781947328  -69.4775181338 36.5304044595 53.0629265027  -69.3894031007 49.4699049079 51.0935062394  -69.2804293852 62.3031894501 48.4203878951  -69.2804293852 75 45.112863908  
-60.2061740353 -75 42.2635027785  -60.2061740353 -69.8948414815 44.0640503795  -60.1591574109 -64.6946213872 45.7152930865  -60.1272949419 -59.499247607 47.204249858  -60.0359085339 -46.6450320748 50.0946695051  -59.9281097895 -33.6358627545 52.0558025419  -59.8623542752 -25.863743229 52.9213427926  -59.7647261176 -14.0533691388 53.7595668486  -59.6630066705 -2.1991074384 53.9096738194  -59.5474358591 1.81886313763 53.9168361147  -59.5120632544 5.93683645215 53.8119071144  -59.4771739534 10.0518371276 53.6341790945  -59.4763231288 10.1522186552 53.6298002879  -59.3644709596 23.3527504818 53.0482901282  -59.2573124674 36.5207749941 51.7228054218  -59.1435735284 49.4751632534 49.8532181666  -59.0043806232 62.3131509063 47.389224271  -59.0043806232 75 44.1813070456  
-44.4306461712 -75 40.0790495373  -44.4306461712 -69.921564678 41.9757277687  -44.3764817033 -64.7391621163 43.9997092093  -44.339537351 -59.5592584745 45.7266455091  -44.2298856951 -46.7314979532 48.7155941914  -44.101023823 -33.7226441277 50.7637362654  -44.0227188565 -25.9427643796 51.6997093848  -43.9065103447 -14.1143171505 52.6305804564  -43.7852628509 -2.23859371234 52.84699621  -43.6470970604 1.78667130559 52.8799441512  -43.6048754604 5.91184738814 52.7924656178  -43.5632391095 10.0335460961 52.6360949426  -43.5622237541 10.134090715 52.6322395534  -43.4287426448 23.3560296664 52.1198918118  -43.3009779926 36.5400957056 50.9085839547  -43.1662702888 49.4978566508 49.3461536324  -43.0019651811 62.3271664661 47.3687829056  -43.0019651811 75 44.3010103034  
-28.5189642644 -75 39.1860428175  -28.5189642644 -69.9482878745 41.1788516793  -28.4672034788 -64.7971759456 43.6614283326  -28.4320297625 -59.6376826754 45.6738751506  -28.3230453869 -46.845382543 48.826502155  -28.1966370914 -33.8386405755 51.0317527305  -28.1205378331 -26.0498103252 52.0823909953  -28.0081158605 -14.1995674364 53.1715564754  -27.8906472828 -2.29733167553 53.5152955163  -27.7524916154 1.73699814118 53.5878595115  -27.711505374 5.87117833328 53.5377820355  -27.6710915948 10.0013099817 53.4226617419  -27.6701060562 10.1020599739 53.4198150234  -27.5405451159 23.3509609661 53.0404408201  -27.4165873151 36.5558994355 52.0069075028  -27.2858132428 49.5194066473 50.8242784346  -27.1245813303 62.338497462 49.4201208065  -27.1245813303 75 46.4656492901  
-22.7547670319 -75 39.0201996406  -22.7547670319 -69.9612218338 41.0595354836  -22.7049273351 -64.8255160401 43.7230214044  -22.6711640008 -59.6760897331 45.8497138124  -22.5646166762 -46.9017386273 49.0850059675  -22.4418359669 -33.8975920348 51.3618379112  -22.3682549133 -26.1056375123 52.4599637445  -22.2598182522 -14.2465933283 53.6122370627  -22.1464461447 -2.33271924161 54.0041465635  -22.0108769584 1.70568277963 54.0907046644  -21.9712853177 5.8440059794 54.0542379314  -21.9322477879 9.97812129197 53.9538839961  -21.9312958115 10.0789683669 53.9513982193  -21.8061471183 23.3406233537 53.6195900851  -21.6864235366 36.55657828 52.6474328493  -21.5599464717 49.5251571306 51.5987084969  -21.4030188515 62.3422258524 50.4004939815  -21.4030188515 75 47.4833034494  
-12.7466647566 -75 38.9725980822  -12.7466647566 -69.9844388478 41.0954518604  -12.7016066145 -64.8778916027 44.0742290199  -12.6713418646 -59.7471144881 46.4009546258  -12.5721162786 -47.0061457426 49.7963772588  -12.4594344964 -34.0072312326 52.2117931613  -12.3925909566 -26.209827826 53.3992270276  -12.2946527092 -14.3350024575 54.6706658563  -12.1921310706 -2.39998669254 55.1553016256  -12.0647319466 1.64583655125 55.2682104331  -12.0288614054 5.79173412471 55.2585077149  -11.993494277 9.93315772441 55.1867521378  -11.9926318085 10.0341829194 55.1849651553  -11.8792500953 23.3192400401 54.9452122911  -11.7707964684 36.5556803622 54.0871849604  -11.6557393988 49.534138203 53.2724679378  -11.5107545863 62.3481914967 52.4273674093  -11.5107545863 75 49.5698286492  
-2.72209551142 -75 39.2857254627  -2.72209551142 -70.0041282531 41.4794074052  -2.68366932316 -64.9258381469 44.7433253339  -2.65820344262 -59.8120970282 47.2503725782  -2.57030707414 -47.1013433552 50.8034569307  -2.47248760051 -34.1062318771 53.3593078249  -2.41528807836 -26.3030211853 54.6359554819  -2.33218958056 -14.4125427422 56.0291768742  -2.24505680237 -2.45734667391 56.6144954789  -2.13076215522 1.59548712 56.75571356  -2.10019469741 5.74846407457 56.7768723828  -2.07005731517 9.89664101628 56.7378883386  -2.06932238064 9.99783075839 56.7369019895  -1.97270658517 23.3045004472 56.6026004609  -1.88029764191 36.5590319665 55.8724231005  -1.7815814888 49.5449291477 55.2912530576  -1.65436067609 62.354157141 54.7816696589  -1.65436067609 75 51.9837826708  
1.51977852542 -75 39.4755334623  1.51977852542 -70.0111815279 41.6945879591  1.55515540808 -64.9439863372 45.0691775029  1.57842760434 -59.836640942 47.6455575291  1.66099280284 -47.1370446096 51.2594857676  1.75191434103 -34.1427476011 53.8701759688  1.80467223325 -26.3368579911 55.18175509  1.88096309362 -14.4397406069 56.6233147039  1.96103106914 -2.47638010176 57.2501307964  2.06909006311 1.57925394149 57.4030103601  2.09721998592 5.73502159967 57.4373845886  2.12495358302 9.88582195745 57.4125704523  2.12562989823 9.98707559562 57.4119303589  2.21453946175 23.3021345754 57.3232435635  2.29957396359 36.5632682071 56.6495641797  2.3907543863 49.5511760276 56.1679342762  2.50967424015 62.3573649178 55.7989508865  2.50967424015 75 53.0331391547  
11.7232412566 -75 40.0528894739  11.7232412566 -70.0243503235 42.3193157219  11.7509107043 -64.9808487864 45.928196852  11.7686869884 -59.8863532387 48.6493099759  11.8375917968 -47.2086147375 52.3893290999  11.9110806361 -34.2140931948 55.1149294456  11.952697425 -26.4012950804 56.4999494191  12.0119865897 -14.4885174442 58.0446444403  12.0744024193 -2.50699354217 58.7638417067  12.1662748762 1.55476403074 58.9425846207  12.188308284 5.71652333703 59.007639083  12.2100295589 9.87283888343 59.0161557907  12.2105592559 9.97422677552 59.0163304061  12.280194026 23.3069029485 59.0350014324  12.3467798112 36.5806095423 58.4982046655  12.419000772 49.5700605029 58.2510570806  12.5167021821 62.3664455659 58.2078636615  12.5167021821 75 55.5328512996  
21.9143496138 -75 40.8877971982  21.9143496138 -70.037519119 43.2015951974  21.9339156804 -65.017263709 46.9810984319  21.9460551738 -59.9353893979 49.8073768706  22.0002717512 -47.2790117157 53.6610124568  22.0556257887 -34.2839691601 56.4670652546  22.0858621819 -26.4641772905 57.8943519688  22.1279800404 -14.5356679169 59.491849848  22.1725525134 -2.53594534474 60.25613987  22.2464586457 1.53194652762 60.4448244371  22.262315594 5.69970820184 60.5259365888  22.2779447834 9.86154781182 60.5532772388  22.2783259164 9.96307017321 60.5539127303  22.3284299939 23.3133917126 60.6334160509  22.3763073368 36.5996792366 60.1874737744  22.4289789914 49.5906070564 60.1109926194  22.5038896417 62.3772201234 60.3149429107  22.5038896417 75 57.7476676864  
27.8612002815 -75 41.447833145  27.8612002815 -70.0458633342 43.7916475634  27.8761348571 -65.0392069435 47.6443824266  27.8851169552 -59.9649711758 50.516178324  27.9308701191 -47.3216600016 54.4322504042  27.9760177908 -34.3267656401 57.270098714  27.999933499 -26.5031223109 58.7078859294  28.0325985662 -14.5656708974 60.3124941585  28.0673444756 -2.5553704745 61.0793452778  28.1306583186 1.51611118887 61.2658520516  28.1431086811 5.6874113362 61.3485416468  28.1553772756 9.85253525993 61.3789728797  28.1556764554 9.95413758759 61.3796846767  28.1950066519 23.3149548559 61.4693441738  28.2325552789 36.6090387021 61.0497491647  28.2742774002 49.6014926951 61.0374402985  28.3360200432 62.3833331792 61.3426728973  28.3360200432 75 58.8365234448  
43.9559880879 -75 43.134948831  43.9559880879 -70.0707091851 45.5681405554  43.9592575066 -65.1004125572 49.531404268  43.9604808598 -60.0477762984 52.4744790554  43.9846507877 -47.4422328268 56.546414976  44.0045157374 -34.4503702156 59.4209739815  44.0130405056 -26.6179039832 60.8409134183  44.0229540168 -14.6583783598 62.3863778491  44.0340343065 -2.62078325566 63.0790939243  44.0696132512 1.46007372574 63.2325069247  44.0738423087 5.64073138358 63.2920126899  44.0779989749 9.81466703427 63.3025373413  44.078100332 9.91648399044 63.3027654915  44.0914238151 23.3054823657 63.3290825827  44.104015161 36.6219107934 62.8805711051  44.1187957126 49.6214723787 62.9066370862  44.1468862102 62.395688845 63.3172886408  44.1468862102 75 60.9346861708  
59.9601371411 -75 45.2331877936  59.9601371411 -70.1012586397 47.7762742431  59.9556777936 -65.1623609926 51.5574039257  59.9522237133 -60.1317474175 54.3930156549  59.9604108414 -47.5656329077 58.539053027  59.9636142309 -34.5800230513 61.2478857299  59.9627829678 -26.741213664 62.4762516434  59.9596072607 -14.7631645377 63.6762690492  59.9569931606 -2.70061441 64.0092499693  59.9702640272 1.3890177935 64.0359083228  59.9696747741 5.57864862114 63.9782254523  59.9690747184 9.76125865954 63.8742081658  59.9690600731 9.86328704103 63.8716436596  59.9671330508 23.280064656 63.5309061189  59.9650466589 36.6209854061 62.7404269972  59.9628557167 49.6326029992 62.4110820655  59.9664755192 62.4080445107 62.467367771  59.9664755192 75 60.2083122835  
70.0175136412 -75 46.6898375382  70.0175136412 -70.1225943755 49.3096744518  70.0107784424 -65.1991025799 52.8224413758  70.0062178466 -60.1812032587 55.4935259831  70.0078451357 -47.6374442913 59.6228297551  70.0054261096 -34.6543987453 62.0998927404  70.0019796579 -26.8112701998 63.1053102006  69.9956589282 -14.8213523011 63.9230011768  69.9896678218 -2.74301736959 63.8703077249  69.9929005766 1.35216676979 63.7660521436  69.9910694799 5.54748323864 63.5836240422  69.9892431536 9.73559219187 63.3573766875  69.9891986028 9.83775460275 63.3518318895  69.9833399362 23.272142567 62.6193518508  69.9774597946 36.628612656 61.4603889507  69.970249547 49.647695417 60.7320567618  69.9645506058 62.4236417573 60.3807865608  69.9645506058 75 58.2776913262  
80.0308012608 -75 48.2787749403  80.0282978141 -70.1545979792 51.3135623512  80.0207874739 -65.247220178 54.6358096325  80.0157805804 -60.2458629926 57.2309166845  80.0119635319 -47.7317001266 61.6419543145  80.0081464834 -34.7539996631 63.8346465295  80.0054431001 -26.9070978844 64.4777525614  80.0016315621 -14.9043728522 64.6056032668  79.9986077072 -2.80701481113 63.7848502406  79.9976955152 1.29506047459 63.4173154999  79.9968652811 5.49764580784 62.9717209073  79.996042697 9.69299631191 62.4846268272  79.9960226335 9.79533535692 62.4727201535  79.9933843734 23.2529487036 60.9037874665  79.9907461132 36.6321798788 58.9303350627  79.9857392197 49.6655628769 57.4182505242  79.9782288795 62.4470376273 56.4442506192  79.9757254328 75 54.874920565  
90 -75 50  90 -70.1652658471 52.7733378419  90 -65.247220178 55.1577354877  90 -60.2458629926 57.1531929375  90 -47.7317001266 61.1070825102  90 -34.7539996631 62.8426266678  90 -26.9070978844 63.1619625328  90 -14.9043728522 62.8333251432  90 -2.80701481113 61.6504207334  90 1.29506047459 61.1736375033  90 5.49764580784 60.6286100831  90 9.69299631191 60.0429993817  90 9.79533535692 60.028689813  90 23.2529487036 58.1437864171  90 36.6321798788 55.8543633044  90 49.6655628769 53.7426291637  90 62.4548362506 51.7911747289  90 75 50  

0 6
51.1376839492 3
80.0693244497 3
101.282308629 3
131.103705426 3
182.138086402 6

0 6
27.002677377 3
66.4578013512 3
86.6685736415 3
87.1739330635 3
153.126374993 6

1 0 0 0 0 0 1 1 0 0 0 1 0 
1 -90 -75 0 0 -1 0 1 0 0 0 0 1 
1 90 -75 0 1 0 0 0 1 0 0 0 1 
1 90 75 0 0 1 0 -1 0 0 0 0 1 
1 -90 75 0 -1 0 0 0 -1 0 0 0 1 
Triangulations 6
28 26 1 18.0000177426721
-90 -75 50 90 -75 50 -63.5319198863237 -75 43.2307796469448 -36.5601570088712 -75 39.7292832680736 -1.41554533104943 -75 39.3724100512717 44.5171623634537 -75 43.3121242490239 90 75 50 90 -63.4776845864993 55.6492052103316 90 -51.4493870599949 59.6394644742175 90 -39.0283102669698 61.9792566801276 90 -22.2292272808709 62.8534777241428 90 3.39028617585376 60.8818779457995 90 39.5282061695612 55.42132395298 -90 75 50 -74.8702003935182 75 46.5536950045703 -59.6521774137693 75 44.8070293916494 -44.4314421747142 75 44.7594241840895 -25.1501154328813 75 46.9279850277213 4.72247375893939 75 53.5767687838247 31.9749081028214 75 59.188437965836 44.6697092592599 75 60.2107081844128 54.1992418488015 75 59.9688640103734 65.7207932466236 75 58.3682984683391 76.2707569774245 75 55.5758432340328 83.1843518639538 75 53.0433637786128 -90 -34.7990212193097 58.0191231647716 -90 6.06594345804991 60.1120886547294 -90 40.8092149464519 57.2036880844037 0 1.00076942718096e-018 182.138086402 -2.1326286378943e-015 27.2454427313337 9.57890763355144e-007 54.6078572295986 3.40928918982906e-006 89.8609921647827 2.41667359171457e-006 135.935871137189 -2.60669492311297e-006 182.138086402 153.126374993 182.138086443445 12.666168080017 182.13808633761 25.4835241931895 182.138086459703 38.3481058568336 182.138086449564 55.2996402574021 182.138086223528 80.6512723905109 182.138086306042 116.607704225525 3.5527136788005e-015 153.126374993 14.9434483979227 153.12637456675 30.0696217732742 153.126375408498 45.2945836420485 153.126376171463 64.7148275918382 153.126375142554 95.0557857573769 153.126374066269 122.896936906842 153.126376341231 135.878466118492 153.126374805033 145.618714352202 153.126375000252 157.385496445661 153.126375055076 168.148743455672 153.126374917502 175.195798053201 153.126375043743 6.73208212245683e-013 41.3061712905093 -3.9351361480764e-013 82.6920228932484 -5.61208174782679e-013 117.948261619459 27 17 28 4 5 27 4 26 3 27 26 4 3 26 1 18 27 5 15 14 28 15 28 16 27 18 17 20 19 12 17 16 28 5 19 18 19 5 12 5 11 12 9 6 8 10 6 9 12 21 20 11 6 10 6 2 8 22 13 23 13 22 21 24 13 25 13 24 23 7 25 13 21 12 13 5 6 11 
9 8 1 19.8000008981336
-90 -75 0 -90 -75 50 90 -75 0 90 -75 50 -63.5319198863237 -75 43.2307796469448 -36.5601570088712 -75 39.7292832680736 -1.41554533104943 -75 39.3724100512717 44.5171623634537 -75 43.3121242490239 0 -75 25 0 0 0 50 180 0 180 50 26.4680801136762 43.2307796469448 53.4398429911288 39.7292832680736 88.5844546689506 39.3724100512717 134.517162363454 43.3121242490239 90 25 1 6 5 6 1 9 5 2 1 9 3 8 3 9 1 8 7 9 4 8 3 9 7 6 
11 10 1 16.8000008981336
90 -75 0 90 -75 50 90 75 0 90 75 50 90 -63.4776845864993 55.6492052103316 90 -51.4493870599949 59.6394644742175 90 -39.0283102669698 61.9792566801276 90 -22.2292272808709 62.8534777241428 90 3.39028617585376 60.8818779457995 90 39.5282061695612 55.42132395298 90 0 31.4267388620714 0 0 0 50 150 0 150 50 11.5223154135007 55.6492052103316 23.5506129400051 59.6394644742175 35.9716897330302 61.9792566801276 52.7707727191291 62.8534777241428 78.3902861758538 60.8818779457995 114.528206169561 55.42132395298 75 31.4267388620714 2 1 5 1 6 5 7 6 11 6 1 11 10 11 3 3 11 1 10 3 4 11 9 8 9 11 10 11 8 7 
16 15 1 19.8000008981336
90 75 0 90 75 50 -90 75 0 -90 75 50 -74.8702003935182 75 46.5536950045703 -59.6521774137693 75 44.8070293916494 -44.4314421747142 75 44.7594241840895 -25.1501154328813 75 46.9279850277213 4.72247375893939 75 53.5767687838247 31.9749081028214 75 59.188437965836 44.6697092592599 75 60.2107081844128 54.1992418488015 75 59.9688640103734 65.7207932466236 75 58.3682984683391 76.2707569774245 75 55.5758432340328 83.1843518639538 75 53.0433637786128 0 75 30.1053540922064 0 0 0 50 180 0 180 50 164.870200393518 46.5536950045703 149.652177413769 44.8070293916494 134.431442174714 44.7594241840895 115.150115432881 46.9279850277213 85.2775262410606 53.5767687838247 58.0250918971786 59.188437965836 45.3302907407401 60.2107081844128 35.8007581511985 59.9688640103734 24.2792067533764 58.3682984683391 13.7292430225755 55.5758432340328 6.81564813604624 53.0433637786128 90 30.1053540922064 2 1 15 14 15 1 1 13 14 13 1 12 12 1 11 11 16 10 11 1 16 16 7 8 7 16 3 6 3 5 3 6 7 16 1 3 8 9 16 4 5 3 16 9 10 
8 7 1 16.8000008981336
-90 75 0 -90 75 50 -90 -75 0 -90 -75 50 -90 -34.7990212193097 58.0191231647716 -90 6.06594345804991 60.1120886547294 -90 40.8092149464519 57.2036880844037 -90 0 30.0560443273647 0 0 0 50 150 0 150 50 109.79902121931 58.0191231647716 68.9340565419501 60.1120886547294 34.1907850535481 57.2036880844037 75 30.0560443273647 2 1 7 8 6 7 7 1 8 8 3 5 3 8 1 4 5 3 8 5 6 
4 2 1 18.00000002
-90 75 0 -90 -75 0 90 -75 0 90 75 0 -90 75 -90 -75 90 -75 90 75 1 2 3 3 4 1 

TShapes 34
Ve
0.000274828616284504
-90 -75 50
0 0

0101100
*
Ve
0.000274828616284504
90 -75 50
0 0

0101100
*
Ed
 0.000274828616284504 1 1 0
1  1 0 0 257.37633418
2  1 1 0 0 257.37633418
6  1 1 0
6  2 2 0
0

0101000
+34 0 -33 0 *
Ve
7.98248254309418e-005
90 75 50
0 0

0101100
*
Ed
 4.72279539122942e-005 1 1 0
1  2 0 0 216.508303543
2  2 1 0 0 216.508303543
6  3 1 0
6  4 3 0
0

0101000
+33 0 -31 0 *
Ve
7.98248254309418e-005
-90 75 50
0 0

0101100
*
Ed
 7.98248254309418e-005 1 1 0
1  3 0 0 258.642175415
2  3 1 0 0 258.642175415
6  5 1 0
6  6 4 0
0

0101000
+29 0 -31 0 *
Ed
 7.20784304944029e-005 1 1 0
1  4 0 0 215.65321266
2  4 1 0 0 215.65321266
6  7 1 0
6  8 5 0
0

0101000
+34 0 -29 0 *
Wi

0101100
+32 0 +30 0 -28 0 -27 0 *
Fa
0  1e-007 1 0
2  1
0101000
+26 0 *
Ve
1e-007
-90 75 0
0 0

0101100
*
Ve
1e-007
-90 -75 0
0 0

0101100
*
Ed
 1e-007 1 1 0
1  5 0 -75 75
6  9 6 0
6  10 5 0
0

0101000
+24 0 -23 0 *
Ve
1e-007
90 -75 0
0 0

0101100
*
Ed
 1e-007 1 1 0
1  6 0 -90 90
6  11 6 0
6  12 2 0
0

0101000
+23 0 -21 0 *
Ve
1e-007
90 75 0
0 0

0101100
*
Ed
 1e-007 1 1 0
1  7 0 -75 75
6  13 6 0
6  14 3 0
0

0101000
+21 0 -19 0 *
Ed
 1e-007 1 1 0
1  8 0 -90 90
6  15 6 0
6  16 4 0
0

0101000
+19 0 -24 0 *
Wi

0101100
+22 0 +20 0 +18 0 +17 0 *
Fa
0  1e-007 2 0
2  6
0101000
+16 0 *
Ed
 1e-007 1 1 0
1  9 0 -25 25
6  17 5 0
0

0101000
+23 0 -34 0 *
Ed
 1e-007 1 1 0
1  10 0 -25 25
6  18 3 0
0

0101000
+21 0 -33 0 *
Wi

0101000
-14 0 +20 0 +13 0 -32 0 *
Fa
0  1e-007 3 0
2  2
0101000
+12 0 *
Ed
 1e-007 1 1 0
1  11 0 -25 25
6  19 3 0
6  20 4 0
0

0101000
+19 0 -31 0 *
Wi

0101000
-13 0 +18 0 +10 0 -30 0 *
Fa
0  1e-007 4 0
2  3
0101000
+9 0 *
Ed
 1e-007 1 1 0
1  12 0 -25 25
6  21 5 0
0

0101000
+24 0 -29 0 *
Wi

0101000
-10 0 +17 0 +7 0 +28 0 *
Fa
0  1e-007 5 0
2  4
0101000
+6 0 *
Wi

0101000
-7 0 +22 0 +14 0 +27 0 *
Fa
0  1e-007 6 0
2  5
0101000
+4 0 *
Sh

0101000
+25 0 -15 0 +11 0 +8 0 +5 0 +3 0 *
So

0100000
+2 0 *

+1 0 